<?xml version="1.0" encoding="utf-8"?>
<!-- Generator: Adobe Illustrator 15.1.0, SVG Export Plug-In . SVG Version: 6.00 Build 0)  -->
<!DOCTYPE svg PUBLIC "-//W3C//DTD SVG 1.1//EN" "http://www.w3.org/Graphics/SVG/1.1/DTD/svg11.dtd">
<svg version="1.1" id="Layer_1" xmlns="http://www.w3.org/2000/svg"  x="0px" y="0px"
	 width="1049.938px" height="150.631px" viewBox="0 0 1049.938 150.631" enable-background="new 0 0 1049.938 150.631"
	 xml:space="preserve">
<polygon fill="#FFFFFF" points="31.613,106.386 31.613,117.989 85.84,118.233 85.84,91.436 20.97,91.436 0,70.355 0,20.838 
	20.893,0 96.802,0 117.452,20.895 117.452,43.518 85.84,43.518 85.84,32.397 31.613,32.397 31.613,62.039 96.635,62.039 
	117.452,81.933 117.452,129.494 96.559,150.631 20.65,150.631 0,129.494 0,106.386 "/>
<polygon fill="#FFFFFF" points="135.485,0 168.097,0 168.097,117.99 219.326,118.233 219.326,0.243 251.938,0.243 251.938,129.67 
	231.234,150.631 156.432,150.631 135.485,129.494 "/>
<polygon fill="#FFFFFF" points="933.485,0 966.097,0 966.097,117.99 1017.326,118.233 1017.326,0.243 1049.938,0.243 
	1049.938,129.67 1029.234,150.631 954.432,150.631 933.485,129.494 "/>
<path fill="#FFFFFF" d="M269.917,0h96.885l20.167,20.895v50.54l-20.086,18.894h-63.354v60.302h-33.612V0z M354.356,32.397h-50.827
	v30.292h50.827V32.397z"/>
<polygon fill="#FFFFFF" points="511.987,117.99 511.987,150.631 405.271,150.631 405.271,0 511.987,0 511.987,32.397 
	438.882,32.397 438.882,61.038 511.987,61.038 511.987,90.679 438.882,90.679 438.882,117.99 "/>
<path fill="#FFFFFF" d="M664.478,0h95.854l20.598,20.895v39.685l-14.092,14.334L780.93,88.52v40.975l-20.598,21.137h-95.854V0z
	 M747.319,32.397H697.09V62.04h50.229V32.397z M747.319,90.679H697.09v28.312h50.229V90.679z"/>
<path fill="#FFFFFF" d="M563.363,90.183v60.448H529.75V0h95.829l21.137,20.895v40.402l-13.848,13.607l13.848,13.605v62.121h-33.612
	V90.183H563.363z M613.104,32.397h-49.741v29.144h49.741V32.397z"/>
<path fill="#FFFFFF" d="M832.363,90.183v60.448H798.75V0h95.829l21.137,20.895v40.402l-13.848,13.607l13.848,13.605v62.121h-33.612
	V90.183H832.363z M882.104,32.397h-49.741v29.144h49.741V32.397z"/>
</svg>
