<?xml version="1.0" encoding="utf-8"?>
<!-- Generator: Adobe Illustrator 15.1.0, SVG Export Plug-In . SVG Version: 6.00 Build 0)  -->
<!DOCTYPE svg PUBLIC "-//W3C//DTD SVG 1.1//EN" "http://www.w3.org/Graphics/SVG/1.1/DTD/svg11.dtd">
<svg version="1.1" id="Layer_1" xmlns="http://www.w3.org/2000/svg" xmlns:xlink="http://www.w3.org/1999/xlink" x="0px" y="0px"
	 width="252.792px" height="271.56px" viewBox="0 0 252.792 271.56" enable-background="new 0 0 252.792 271.56"
	 xml:space="preserve">
<g>
	<defs>
		<path id="SVGID_1_" d="M81.543,0c-2.751,0-6.956,1.112-9.346,2.472L4.346,41.066C1.956,42.426,0,45.788,0,48.538l0.005,176.345
			c0,2.749,1.976,6.075,4.391,7.391l67.755,36.895c2.416,1.315,6.641,2.392,9.392,2.392H171.6c2.75,0,6.977-1.076,9.392-2.392
			l67.409-36.71c2.415-1.316,4.392-4.643,4.392-7.393l-0.002-176.715c0-2.749-1.955-6.113-4.345-7.472L180.947,2.472
			C178.556,1.112,174.35,0,171.6,0H81.543z"/>
	</defs>
	<clipPath id="SVGID_2_">
		<use xlink:href="#SVGID_1_"  overflow="visible"/>
	</clipPath>

		<linearGradient id="SVGID_3_" gradientUnits="userSpaceOnUse" x1="-546.1016" y1="516.5601" x2="-545.1016" y2="516.5601" gradientTransform="matrix(0 271.5605 271.5605 0 -140150.9062 148299.7969)">
		<stop  offset="0" style="stop-color:#E74C3C"/>
		<stop  offset="0.9947" style="stop-color:#C0392B"/>
		<stop  offset="1" style="stop-color:#C0392B"/>
	</linearGradient>
	<rect clip-path="url(#SVGID_2_)" fill="url(#SVGID_3_)" width="252.792" height="271.56"/>
</g>
<g>
	<defs>
		<rect id="SVGID_4_" x="-546.102" y="-251.44" width="1366" height="768"/>
	</defs>
	<clipPath id="SVGID_5_">
		<use xlink:href="#SVGID_4_"  overflow="visible"/>
	</clipPath>
	<path clip-path="url(#SVGID_5_)" fill="#FFFFFF" d="M158.091,87.81l74.859,33.123c2.515,1.113,4.572-0.227,4.572-2.977v-60.25
		c0-2.75-1.996-6.036-4.438-7.302l-11.521-5.979v17.802c0,2.2-1.801,4-4,4c-2.2,0-4-1.8-4-4V40.274l-14-7.265v21.218
		c0,2.2-1.801,4-4,4c-2.2,0-4-1.8-4-4v-25.37l-14-7.264v24.634c0,2.2-1.801,4-4,4c-2.2,0-4-1.8-4-4V17.961
		c-2.002-0.565-4.167-0.937-5.805-0.937H89.757c-2.75,0-7,1.03-9.446,2.288L20.067,50.331c-2.445,1.258-4.445,4.539-4.445,7.289
		v61.167c0,2.75,2.039,5.949,4.532,7.11l60.187,28.029c2.492,1.161,6.782,2.111,9.532,2.111h58.645c2.75,0,5,2.25,5,5v40.179
		c0,2.75-2.25,4.984-4.999,4.965l-43.895-0.303c-2.75-0.02-4.999-2.284-4.999-5.034v-10.815c0-2.75-2.058-5.91-4.573-7.023
		l-74.858-33.123c-2.515-1.112-4.572,0.227-4.572,2.977v60.994c0,2.75,1.992,6.045,4.428,7.322l59.906,31.41
		c2.436,1.276,6.679,2.321,9.429,2.321h74.001c2.75,0,6.995-1.04,9.434-2.312l60.27-31.432c2.439-1.271,4.434-4.561,4.434-7.311
		v-65.825c0-2.75-2.041-5.945-4.537-7.101l-59.946-27.763c-2.495-1.156-6.787-2.102-9.537-2.102h-58.877c-2.75,0-5-2.25-5-5V70.716
		c0-2.75,2.25-5,5-5h43.893c2.75,0,5,2.25,5,5v10.071C153.518,83.537,155.576,86.697,158.091,87.81"/>
</g>
</svg>
