<?xml version="1.0" encoding="utf-8"?>
<!-- Generator: Adobe Illustrator 15.1.0, SVG Export Plug-In . SVG Version: 6.00 Build 0)  -->
<!DOCTYPE svg PUBLIC "-//W3C//DTD SVG 1.1//EN" "http://www.w3.org/Graphics/SVG/1.1/DTD/svg11.dtd">
<svg version="1.1" id="Layer_1" xmlns="http://www.w3.org/2000/svg" xmlns:xlink="http://www.w3.org/1999/xlink" x="0px" y="0px"
	 width="200px" height="200px" viewBox="0 0 200 200" enable-background="new 0 0 200 200" xml:space="preserve">
<circle fill="none" stroke="#0f161c" stroke-width="5" stroke-miterlimit="10" cx="100.125" cy="99.875" r="96.875"/>
<polygon fill="#0f161c" points="78.441,128.5 64.905,86.838 100.344,61.09 135.784,86.838 122.247,128.5 "/>
<line fill="none" stroke="#0f161c" stroke-width="6" stroke-miterlimit="10" x1="100.344" y1="70" x2="100.344" y2="4.75"/>
<line fill="none" stroke="#0f161c" stroke-width="6" stroke-miterlimit="10" x1="128.75" y1="88.25" x2="191.25" y2="71.5"/>
<line fill="none" stroke="#0f161c" stroke-width="6" stroke-miterlimit="10" x1="118.25" y1="122.75" x2="156.01" y2="179.014"/>
<line fill="none" stroke="#0f161c" stroke-width="6" stroke-miterlimit="10" x1="81.5" y1="122.75" x2="38.25" y2="177.25"/>
<line fill="none" stroke="#0f161c" stroke-width="6" stroke-miterlimit="10" x1="71.5" y1="88.25" x2="8.742" y2="67.659"/>
<polygon fill="#0f161c" points="178.755,43.275 167.5,43.275 167.5,76.75 187.25,106 197,99.875 196.087,86.557 191.25,65.75 "/>
<polygon fill="#0f161c" points="132.328,8.487 137.13,19.75 104,27 68.25,17.743 72.73,6.933 93.5,3 106,3 122.478,5.594 "/>
<polygon fill="#0f161c" points="23.883,40.103 36.5,40.103 33.25,74.638 12,103 2.25,99 5.741,77.955 8.742,61.09 17.25,48 "/>
<polygon fill="#0f161c" points="19.375,154.75 22.75,142 56.105,154.75 75.25,183.5 64.905,190.146 49.148,182.262 35.217,171.787 
	24.25,159.5 "/>
<polygon fill="#0f161c" points="133.805,190.731 118.25,185.75 140.854,156.431 174.75,147 178.959,156.189 167.5,170.5 
	148.604,183.764 "/>
</svg>
