<?xml version="1.0" encoding="utf-8"?>
<!-- Generator: Adobe Illustrator 15.1.0, SVG Export Plug-In . SVG Version: 6.00 Build 0)  -->
<!DOCTYPE svg PUBLIC "-//W3C//DTD SVG 1.1//EN" "http://www.w3.org/Graphics/SVG/1.1/DTD/svg11.dtd">
<svg version="1.1" id="Layer_1" xmlns="http://www.w3.org/2000/svg" xmlns:xlink="http://www.w3.org/1999/xlink" x="0px" y="0px"
	 width="221.9px" height="237.883px" viewBox="0 0 221.9 237.883" enable-background="new 0 0 221.9 237.883" xml:space="preserve">
<path fill="#e74c3c" d="M142.469,70.786l74.859,33.123c2.515,1.113,4.572-0.227,4.572-2.977v-60.25c0-2.75-1.996-6.036-4.438-7.302
	l-11.521-5.979v17.802c0,2.2-1.801,4-4,4c-2.2,0-4-1.8-4-4V23.25l-14-7.265v21.218c0,2.2-1.801,4-4,4c-2.2,0-4-1.8-4-4v-25.37
	l-14-7.264v24.634c0,2.2-1.801,4-4,4c-2.2,0-4-1.8-4-4V0.937C151.94,0.372,149.775,0,148.138,0H74.135c-2.75,0-7,1.03-9.446,2.288
	L4.445,33.307C2,34.565,0,37.846,0,40.596v61.167c0,2.75,2.039,5.949,4.532,7.11l60.187,28.029c2.492,1.161,6.782,2.111,9.532,2.111
	h58.645c2.75,0,5,2.25,5,5v40.179c0,2.75-2.25,4.984-4.999,4.965l-43.895-0.303c-2.75-0.02-4.999-2.284-4.999-5.034v-10.815
	c0-2.75-2.058-5.91-4.573-7.023L4.572,132.858C2.057,131.746,0,133.085,0,135.835v60.994c0,2.75,1.992,6.045,4.428,7.322
	l59.906,31.41c2.436,1.276,6.679,2.321,9.429,2.321h74.001c2.75,0,6.995-1.04,9.434-2.312l60.27-31.432
	c2.439-1.271,4.434-4.561,4.434-7.311v-65.825c0-2.75-2.041-5.945-4.537-7.101L157.417,96.14c-2.495-1.156-6.787-2.102-9.537-2.102
	H89.003c-2.75,0-5-2.25-5-5V53.692c0-2.75,2.25-5,5-5h43.893c2.75,0,5,2.25,5,5v10.071
	C137.896,66.513,139.953,69.673,142.469,70.786"/>
<rect x="-561.725" y="-268.464" fill="none" width="1366" height="768"/>
</svg>
